# xmcd
#
# Track frame offsets:
#	150
#	21006
#	44025
#	61008
#	73878
#	90588
#	107979
#	121817
#	140959
#	152706
#	176862
#	188855
#	209395
#	228250
#	238405
#	259843
#	291531
#
# Disc length: 4008 seconds
#
# Revision: 1
# Processed by: cddbd v1.5.2PL0 Copyright (c) Steve Scherf et al.
# Submitted via: Antz-MP3Processor 1.0.0
#
DISCID=0c0fa611
DTITLE=Various Artist - In Our Backyard
DYEAR=2005
DGENRE=Blues
TTITLE0=Flatfoot Sam and the Educated Fools - Come to My Place
TTITLE1=Big Mitch Ivanoff - Goodbye Baby
TTITLE2=Slaughterhouse Blues One Too Many
TTITLE3=Automatic Slim - John Hurt
TTITLE4=Mark Santanna - Easier Way
TTITLE5=Nate Myers and the Aces - Porch Light
TTITLE6=Gary Harrington - The Girl Can Cook
TTITLE7=Reggie Wayne Morris - Rocket Science
TTITLE8=Mike Easton With Jeff Cameron and the House Band) - Deep Water Stomp
TTITLE9=Roger 'hurricane' Wilson - Tribute to Danny
TTITLE10=Mark Santanna - Hey Baby
TTITLE11=Blind Joe Death - Bricks in My Pillow
TTITLE12=Automatic Slim - 3 Kings
TTITLE13=Blind Joe Death - Sowing Wild Oats
TTITLE14=B. Black Blues Band - Journey's End
TTITLE15=Roger 'hurricane' Wilson - Just One More White Boy Singing the Blues
TTITLE16=Eli Charleston - Champagne Charlie is My Name
EXTD=
EXTT0=
EXTT1=
EXTT2=
EXTT3=
EXTT4=
EXTT5=
EXTT6=
EXTT7=
EXTT8=
EXTT9=
EXTT10=
EXTT11=
EXTT12=
EXTT13=
EXTT14=
EXTT15=
EXTT16=
PLAYORDER=
